<svg width="32" height="32" xmlns="http://www.w3.org/2000/svg"><path d="M17.762 9.294a.996.996 0 0 0-.724-.292.997.997 0 0 0-.726.292l-6.69 5.918a1.007 1.007 0 0 0 1.422 1.422l5.992-5.302 5.992 5.302a1.007 1.007 0 0 0 1.422-1.422l-6.688-5.918zm0 7.172a.996.996 0 0 0-.724-.292.997.997 0 0 0-.726.292l-6.69 5.918a1.007 1.007 0 0 0 1.422 1.422l5.992-5.3 5.992 5.3a1.007 1.007 0 0 0 1.422-1.422l-6.688-5.918zm-.69-14.322c-8.244 0-14.928 6.684-14.928 14.928S8.828 32 17.072 32 32 25.316 32 17.072 25.316 2.144 17.072 2.144zm0 27.856C9.944 30 4.144 24.2 4.144 17.072s5.8-12.928 12.928-12.928S30 9.944 30 17.072 24.2 30 17.072 30z"/></svg>