<svg width="32" height="32" xmlns="http://www.w3.org/2000/svg"><path d="M17.072 2.144c-8.244 0-14.928 6.684-14.928 14.928S8.828 32 17.072 32 32 25.316 32 17.072 25.316 2.144 17.072 2.144zm-6.88 22.308a1.007 1.007 0 0 1 0-1.422l5.3-5.992-5.3-5.992a1.007 1.007 0 0 1 1.422-1.424l5.918 6.69c.2.2.296.462.292.724a.987.987 0 0 1-.29.726l-5.918 6.69a1.006 1.006 0 0 1-1.424 0zm14.514-6.69l-5.918 6.69a1.007 1.007 0 0 1-1.422-1.422l5.3-5.992-5.3-5.992a1.007 1.007 0 0 1 1.422-1.422l5.918 6.69c.2.2.296.462.292.724.002.262-.092.524-.292.724z"/></svg>