<svg width="32" height="32" xmlns="http://www.w3.org/2000/svg"><path d="M24.706 16.312l-5.918-6.69a1.007 1.007 0 0 0-1.422 1.422l5.3 5.992-5.3 5.992a1.007 1.007 0 0 0 1.422 1.422l5.918-6.69c.2-.2.296-.462.292-.724a1.004 1.004 0 0 0-.292-.724zm-6.88.724a.993.993 0 0 0-.292-.724l-5.918-6.69a1.007 1.007 0 0 0-1.422 1.422l5.3 5.992-5.3 5.992a1.007 1.007 0 0 0 1.422 1.422l5.918-6.69a.99.99 0 0 0 .292-.724zM17 2C8.716 2 2 8.716 2 17s6.716 15 15 15 15-6.716 15-15S25.284 2 17 2zm0 28C9.832 30 4 24.168 4 17S9.832 4 17 4s13 5.832 13 13-5.832 13-13 13z"/></svg>