<svg width="32" height="32" xmlns="http://www.w3.org/2000/svg"><path d="M17.072 2.142c-8.244 0-14.928 6.684-14.928 14.928C2.142 25.316 8.826 32 17.072 32 25.316 32 32 25.316 32 17.072c0-8.246-6.684-14.93-14.928-14.93zm-.436 22.236a1.007 1.007 0 0 1-1.422 0l-5.92-6.69a1 1 0 0 1-.292-.726 1.004 1.004 0 0 1 .292-.724l5.918-6.69a1.007 1.007 0 0 1 1.422 1.422l-5.3 5.992 5.3 5.992c.394.394.394 1.032.002 1.424zm7.172-1.422a1.007 1.007 0 0 1-1.422 1.422l-5.92-6.69a1 1 0 0 1-.292-.726 1.004 1.004 0 0 1 .292-.724l5.918-6.69a1.007 1.007 0 0 1 1.422 1.422l-5.3 5.992 5.302 5.994z"/></svg>