<?xml version="1.0" standalone="no"?>
<!DOCTYPE svg PUBLIC "-//W3C//DTD SVG 20010904//EN"
 "http://www.w3.org/TR/2001/REC-SVG-20010904/DTD/svg10.dtd">
<svg version="1.0" xmlns="http://www.w3.org/2000/svg"
 width="128.000000pt" height="128.000000pt" viewBox="0 0 128.000000 128.000000"
 preserveAspectRatio="xMidYMid meet">
<metadata>
Created by potrace 1.11, written by Peter Selinger 2001-2013
</metadata>
<g transform="translate(0.000000,128.000000) scale(0.100000,-0.100000)"
fill="#000000" stroke="none">
<path d="M244 1080 c-105 -37 -94 8 -94 -394 l0 -353 58 20 c89 31 215 34 299
8 37 -12 74 -25 81 -27 9 -5 12 68 12 344 l0 350 -26 17 c-83 54 -232 70 -330
35z"/>
<path d="M774 1081 c-105 -38 -94 7 -94 -396 0 -195 1 -355 3 -355 1 0 27 10
57 21 85 33 211 37 296 10 38 -12 75 -25 82 -27 9 -5 12 69 12 349 l0 354 -62
29 c-82 37 -214 44 -294 15z"/>
<path d="M45 967 c-3 -6 -4 -181 -3 -387 l3 -375 226 -3 c216 -2 227 -3 232
-22 5 -19 14 -20 137 -20 123 0 132 1 137 20 5 19 16 20 232 22 l226 3 0 385
0 385 -28 3 -27 3 0 -365 0 -366 -52 29 c-146 81 -329 79 -450 -4 l-38 -26
-37 26 c-122 83 -305 85 -451 4 l-52 -29 0 365 0 365 -25 0 c-14 0 -28 -6 -30
-13z"/>
</g>
</svg>
